<svg height="814" width="720" xmlns="http://www.w3.org/2000/svg">
<rect height="814" fill="#555" width="720"></rect>
<text fill="#7f7" font-family="Courier New" font-size="12" xml:space="preserve">
<tspan x="10" y="26">└─┬ http-proxy-middleware@0.17.4 </tspan>
<tspan x="10" y="42">  ├─┬ http-proxy@1.16.2 </tspan>
<tspan x="10" y="58">  │ ├── eventemitter3@1.2.0 </tspan>
<tspan x="10" y="74">  │ └── requires-port@1.0.0 </tspan>
<tspan x="10" y="90">  ├─┬ is-glob@3.1.0 </tspan>
<tspan x="10" y="106">  │ └── is-extglob@2.1.1 </tspan>
<tspan x="10" y="122">  ├── lodash@4.17.4 </tspan>
<tspan x="10" y="138">  └─┬ micromatch@2.3.11 </tspan>
<tspan x="10" y="154">    ├─┬ arr-diff@2.0.0 </tspan>
<tspan x="10" y="170">    │ └── arr-flatten@1.0.1 </tspan>
<tspan x="10" y="186">    ├── array-unique@0.2.1 </tspan>
<tspan x="10" y="202">    ├─┬ braces@1.8.5 </tspan>
<tspan x="10" y="218">    │ ├─┬ expand-range@1.8.2 </tspan>
<tspan x="10" y="234">    │ │ └─┬ fill-range@2.2.3 </tspan>
<tspan x="10" y="250">    │ │   ├── is-number@2.1.0 </tspan>
<tspan x="10" y="266">    │ │   ├─┬ isobject@2.1.0 </tspan>
<tspan x="10" y="282">    │ │   │ └── isarray@1.0.0 </tspan>
<tspan x="10" y="298">    │ │   ├── randomatic@1.1.6 </tspan>
<tspan x="10" y="314">    │ │   └── repeat-string@1.6.1 </tspan>
<tspan x="10" y="330">    │ ├── preserve@0.2.0 </tspan>
<tspan x="10" y="346">    │ └── repeat-element@1.1.2 </tspan>
<tspan x="10" y="362">    ├─┬ expand-brackets@0.1.5 </tspan>
<tspan x="10" y="378">    │ └── is-posix-bracket@0.1.1 </tspan>
<tspan x="10" y="394">    ├─┬ extglob@0.3.2 </tspan>
<tspan x="10" y="410">    │ └── is-extglob@1.0.0 </tspan>
<tspan x="10" y="426">    ├── filename-regex@2.0.0 </tspan>
<tspan x="10" y="442">    ├── is-extglob@1.0.0 </tspan>
<tspan x="10" y="458">    ├── is-glob@2.0.1 </tspan>
<tspan x="10" y="474">    ├─┬ kind-of@3.1.0 </tspan>
<tspan x="10" y="490">    │ └── is-buffer@1.1.5 </tspan>
<tspan x="10" y="506">    ├─┬ normalize-path@2.1.1 </tspan>
<tspan x="10" y="522">    │ └── remove-trailing-separator@1.0.1 </tspan>
<tspan x="10" y="538">    ├─┬ object.omit@2.0.1 </tspan>
<tspan x="10" y="554">    │ ├─┬ for-own@0.1.5 </tspan>
<tspan x="10" y="570">    │ │ └── for-in@1.0.2 </tspan>
<tspan x="10" y="586">    │ └── is-extendable@0.1.1 </tspan>
<tspan x="10" y="602">    ├─┬ parse-glob@3.0.4 </tspan>
<tspan x="10" y="618">    │ ├─┬ glob-base@0.3.0 </tspan>
<tspan x="10" y="634">    │ │ ├─┬ glob-parent@2.0.0 </tspan>
<tspan x="10" y="650">    │ │ │ └─┬ is-glob@2.0.1 </tspan>
<tspan x="10" y="666">    │ │ │   └── is-extglob@1.0.0 </tspan>
<tspan x="10" y="682">    │ │ └─┬ is-glob@2.0.1 </tspan>
<tspan x="10" y="698">    │ │   └── is-extglob@1.0.0 </tspan>
<tspan x="10" y="714">    │ ├── is-dotfile@1.0.2 </tspan>
<tspan x="10" y="730">    │ ├── is-extglob@1.0.0 </tspan>
<tspan x="10" y="746">    │ └── is-glob@2.0.1 </tspan>
<tspan x="10" y="762">    └─┬ regex-cache@0.4.3 </tspan>
<tspan x="10" y="778">      ├── is-equal-shallow@0.1.3 </tspan>
<tspan x="10" y="794">      └── is-primitive@2.0.0</tspan>
</text>
</svg>
